<?xml version="1.0" encoding="UTF-8" standalone="no"?><svg xmlns="http://www.w3.org/2000/svg" xmlns:xlink="http://www.w3.org/1999/xlink" contentStyleType="text/css" height="432px" preserveAspectRatio="none" style="width:128px;height:432px;background:#FFFFFF;" version="1.1" viewBox="0 0 128 432" width="128px" zoomAndPan="magnify"><defs/><g><ellipse cx="53.5" cy="16" fill="#222222" rx="10" ry="10" style="stroke:none;stroke-width:1.0;"/><rect fill="#F1F1F1" height="40" rx="12.5" ry="12.5" style="stroke:#181818;stroke-width:0.5;" width="69" x="19" y="86"/><text fill="#000000" font-family="sans-serif" font-size="14" lengthAdjust="spacing" textLength="59" x="24" y="110.8467">Unheard</text><rect fill="#F1F1F1" height="40" rx="12.5" ry="12.5" style="stroke:#181818;stroke-width:0.5;" width="93" x="7" y="186"/><text fill="#000000" font-family="sans-serif" font-size="14" lengthAdjust="spacing" textLength="83" x="12" y="210.8467">Registering</text><rect fill="#F1F1F1" height="40" rx="12.5" ry="12.5" style="stroke:#181818;stroke-width:0.5;" width="89" x="9" y="286"/><text fill="#000000" font-family="sans-serif" font-size="14" lengthAdjust="spacing" textLength="79" x="14" y="310.8467">Registered</text><rect fill="#F1F1F1" height="40" rx="12.5" ry="12.5" style="stroke:#181818;stroke-width:0.5;" width="50" x="28.5" y="386"/><text fill="#000000" font-family="sans-serif" font-size="14" lengthAdjust="spacing" textLength="40" x="33.5" y="410.8467">Down</text><!--MD5=[6589d4d3e487c7b598d53b909dcac3fe]
link *start to Unheard--><g id="link_*start_Unheard"><path d="M53.5,26.086 C53.5,38.821 53.5,62.447 53.5,80.54 " fill="none" id="*start-to-Unheard" style="stroke:#181818;stroke-width:1.0;"/><polygon fill="#181818" points="53.5,85.96,57.5,76.96,53.5,80.96,49.5,76.96,53.5,85.96" style="stroke:#181818;stroke-width:1.0;"/></g><!--MD5=[0fe8c7d6a51711a979d133f8532d6252]
link Unheard to Registering--><g id="link_Unheard_Registering"><path d="M53.5,126.362 C53.5,141.932 53.5,163.897 53.5,180.657 " fill="none" id="Unheard-to-Registering" style="stroke:#181818;stroke-width:1.0;"/><polygon fill="#181818" points="53.5,185.679,57.5,176.679,53.5,180.679,49.5,176.679,53.5,185.679" style="stroke:#181818;stroke-width:1.0;"/></g><!--MD5=[9812eb615fa3321a2755c3b8c2c8d4a0]
link Registering to Registered--><g id="link_Registering_Registered"><path d="M43.104,226.362 C40.2574,241.932 39.9925,263.897 42.3095,280.657 " fill="none" id="Registering-to-Registered" style="stroke:#181818;stroke-width:1.0;"/><polygon fill="#181818" points="43.1114,285.679,45.6419,276.1608,42.3228,280.7416,37.742,277.4225,43.1114,285.679" style="stroke:#181818;stroke-width:1.0;"/></g><!--MD5=[9aeff87fe443b9fcb9c19eb526ffe2f1]
link Registered to Registering--><g id="link_Registered_Registering"><path d="M64.4997,285.679 C67.5185,270.12 67.8037,248.155 65.3551,231.386 " fill="none" id="Registered-to-Registering" style="stroke:#181818;stroke-width:1.0;"/><polygon fill="#181818" points="64.5075,226.362,62.0598,235.9018,65.3389,231.2924,69.9484,234.5715,64.5075,226.362" style="stroke:#181818;stroke-width:1.0;"/></g><!--MD5=[e25fdcbd41dfc73b21ca9b573411ed4e]
link Registered to Down--><g id="link_Registered_Down"><path d="M43.104,326.3616 C40.2574,341.9317 39.9925,363.897 42.3095,380.6571 " fill="none" id="Registered-to-Down" style="stroke:#181818;stroke-width:1.0;"/><polygon fill="#181818" points="43.1114,385.6786,45.6416,376.1603,42.3227,380.7412,37.7418,377.4222,43.1114,385.6786" style="stroke:#181818;stroke-width:1.0;"/></g><!--MD5=[dee1908a6093df6f858a08c14da4c9bc]
link Down to Registered--><g id="link_Down_Registered"><path d="M64.4997,385.6786 C67.5185,370.1196 67.8037,348.1553 65.3551,331.3862 " fill="none" id="Down-to-Registered" style="stroke:#181818;stroke-width:1.0;"/><polygon fill="#181818" points="64.5075,326.3616,62.0606,335.9017,65.3394,331.2919,69.9491,334.5707,64.5075,326.3616" style="stroke:#181818;stroke-width:1.0;"/></g><!--MD5=[98bc218f718d0d35a71207807285d79f]
link Down to Registering--><g id="link_Down_Registering"><path d="M74.624,385.8753 C89.2226,371.1469 107.414,349.3997 115.5,326 C121.306,309.197 121.306,302.803 115.5,286 C108.109,264.611 92.2746,244.603 78.4586,230.074 " fill="none" id="Down-to-Registering" style="stroke:#181818;stroke-width:1.0;"/><polygon fill="#181818" points="74.624,226.125,78.0234,235.3686,78.1069,229.7124,83.7632,229.7959,74.624,226.125" style="stroke:#181818;stroke-width:1.0;"/></g></g></svg>
